<svg id="visual" viewBox="0 0 900 900" width="900" height="900" xmlns="http://www.w3.org/2000/svg" xmlns:xlink="http://www.w3.org/1999/xlink" version="1.1"><g transform="translate(876.4680578882133 33.809263313682834)"><path d="M214.2 -330.2C287 -242 361.8 -191.9 433.4 -108.5C505 -25 573.5 91.8 537.8 166.4C502 241 362.1 273.4 255.1 328.5C148.1 383.5 74.1 461.3 -23.7 493.9C-121.5 526.5 -243 514.1 -283.1 437.3C-323.2 360.5 -282 219.3 -322 103C-362.1 -13.4 -483.5 -104.9 -498.8 -194.3C-514.1 -283.7 -423.4 -370.8 -322.6 -449.9C-221.8 -528.9 -110.9 -600 -20.1 -572.3C70.7 -544.7 141.5 -418.4 214.2 -330.2" fill="#60e995"></path></g></svg>