<?xml version="1.0"?>
<svg width="210" height="210" xmlns="http://www.w3.org/2000/svg" xmlns:svg="http://www.w3.org/2000/svg" xmlns:xlink="http://www.w3.org/1999/xlink" data-name="Capa 1">
 <defs>
  <style>.cls-1 {
        clip-path: url(#clippath);
      }

      .cls-2, .cls-3, .cls-4 {
        fill: none;
      }

      .cls-2, .cls-5, .cls-6, .cls-7, .cls-8, .cls-9, .cls-10, .cls-11, .cls-12, .cls-13, .cls-14, .cls-15, .cls-16, .cls-17, .cls-18 {
        stroke-width: 0px;
      }

      .cls-3, .cls-4 {
        stroke: #fff;
        stroke-linejoin: round;
        stroke-width: .55px;
      }

      .cls-19 {
        clip-path: url(#clippath-1);
      }

      .cls-5 {
        fill: url(#Degradado_sin_nombre_3);
      }

      .cls-6 {
        fill: url(#Degradado_sin_nombre_2);
      }

      .cls-7 {
        fill: url(#Degradado_sin_nombre);
      }

      .cls-20 {
        opacity: .3;
      }

      .cls-8 {
        fill: #24292f;
        fill-rule: evenodd;
      }

      .cls-10 {
        fill: #2b67af;
      }

      .cls-11 {
        fill: #6f519c;
      }

      .cls-12 {
        fill: #386db3;
      }

      .cls-13 {
        fill: #1bb5c2;
      }

      .cls-14 {
        fill: #1e293b;
      }

      .cls-15 {
        fill: #e51e57;
      }

      .cls-16 {
        fill: #e4231f;
      }

      .cls-17 {
        fill: #fdfdfd;
      }

      .cls-18 {
        fill: #fff;
      }

      .cls-4 {
        stroke-linecap: round;
      }</style>
  <clipPath id="clippath">
   <rect class="cls-2" height="456.16" id="svg_1" width="397.36" x="3.24" y="-87.32"/>
  </clipPath>
  <clipPath id="clippath-1">
   <circle class="cls-2" cx="267.92" cy="71.45" id="svg_2" r="18.31"/>
  </clipPath>
  <symbol height="64px" id="svg_144" viewBox="0 0 72 72" width="64px" xmlns="http://www.w3.org/2000/svg">
   <g id="svg_143" stroke-width="0"/>
   <g id="svg_142" stroke-linecap="round" stroke-linejoin="round"/>
   <g id="svg_141">
    <g fill="none" fill-rule="evenodd">
     <path d="m36,72l0,0c19.88,0 36,-16.12 36,-36l0,0c0,-19.88 -16.12,-36 -36,-36l0,0c-19.88,0 -36,16.12 -36,36l0,0c0,19.88 16.12,36 36,36z" fill="#FF0002"/>
     <path d="m31.04,42.27l0,-13.58l12.97,6.81l-12.97,6.77zm28.48,-15.94c0,0 -0.47,-3.33 -1.91,-4.79c-1.82,-1.93 -3.87,-1.94 -4.81,-2.05c-6.71,-0.49 -16.79,-0.49 -16.79,-0.49l-0.02,0c0,0 -10.08,0 -16.79,0.49c-0.94,0.11 -2.99,0.12 -4.81,2.05c-1.44,1.46 -1.91,4.79 -1.91,4.79c0,0 -0.48,3.92 -0.48,7.83l0,3.67c0,3.91 0.48,7.82 0.48,7.82c0,0 0.47,3.33 1.91,4.8c1.82,1.92 4.22,1.86 5.29,2.06c3.84,0.38 16.32,0.49 16.32,0.49c0,0 10.09,-0.02 16.8,-0.5c0.94,-0.12 2.99,-0.13 4.81,-2.05c1.44,-1.47 1.91,-4.8 1.91,-4.8c0,0 0.48,-3.91 0.48,-7.82l0,-3.67c0,-3.91 -0.48,-7.83 -0.48,-7.83l0,0z" fill="#FFF"/>
    </g>
   </g>
  </symbol>
  <symbol height="64px" id="svg_153" version="1.1" viewBox="0 0 48 48" width="64px" xmlns="http://www.w3.org/2000/svg" xmlns:xlink="http://www.w3.org/1999/xlink">
   <g id="svg_152" stroke-width="0"/>
   <g id="svg_151" stroke-linecap="round" stroke-linejoin="round"/>
   <g id="svg_147">
    <title>Spotify-color</title>
    <desc>Created with Sketch.</desc>

    <g fill="none" fill-rule="evenodd" id="svg_148">
     <g fill="#00DA5A" id="svg_149" transform="translate(-200.000000, -460.000000)">
      <path d="m238.16,481.36c-7.68,-4.56 -20.52,-5.04 -27.84,-2.76c-1.2,0.36 -2.4,-0.36 -2.76,-1.44c-0.36,-1.2 0.36,-2.4 1.44,-2.76c8.52,-2.52 22.56,-2.04 31.44,3.24c1.08,0.6 1.44,2.04 0.84,3.12c-0.6,0.84 -2.04,1.2 -3.12,0.6m-0.24,6.72c-0.6,0.84 -1.68,1.2 -2.52,0.6c-6.48,-3.96 -16.32,-5.16 -23.88,-2.76c-0.96,0.24 -2.04,-0.24 -2.28,-1.2c-0.24,-0.96 0.24,-2.04 1.2,-2.28c8.76,-2.64 19.56,-1.32 27,3.24c0.72,0.36 1.08,1.56 0.48,2.4m-2.88,6.6c-0.48,0.72 -1.32,0.96 -2.04,0.48c-5.64,-3.48 -12.72,-4.2 -21.12,-2.28c-0.84,0.24 -1.56,-0.36 -1.8,-1.08c-0.24,-0.84 0.36,-1.56 1.08,-1.8c9.12,-2.04 17.04,-1.2 23.28,2.64c0.84,0.36 0.96,1.32 0.6,2.04m-11.04,-34.68c-13.2,0 -24,10.8 -24,24c0,13.2 10.8,24 24,24c13.2,0 24,-10.8 24,-24c0,-13.2 -10.68,-24 -24,-24" id="svg_150"/>
     </g>
    </g>
   </g>
  </symbol>
  <symbol height="100px" id="svg_158" stroke-width="0" viewBox="-2.4 -2.4 28.80 28.80" width="100px" xmlns="http://www.w3.org/2000/svg">
   <g id="svg_157" stroke-width="0" transform="translate(5.040000000000001,5.040000000000001), scale(0.58)">
    <rect fill="#ffffff" height="28.8" width="28.8" x="-2.4" y="-2.4"/>
   </g>
   <g id="svg_156" stroke-linecap="round" stroke-linejoin="round"/>
   <g id="svg_155">
    <path clip-rule="evenodd" d="m3.46,20.54c1.47,1.46 3.83,1.46 8.54,1.46c4.71,0 7.07,0 8.54,-1.46c1.46,-1.47 1.46,-3.83 1.46,-8.54c0,-4.71 0,-7.07 -1.46,-8.54c-1.47,-1.46 -3.83,-1.46 -8.54,-1.46c-4.71,0 -7.07,0 -8.54,1.46c-1.46,1.47 -1.46,3.83 -1.46,8.54c0,4.71 0,7.07 1.46,8.54zm6.04,-11.79c-1.79,0 -3.25,1.46 -3.25,3.25c0,1.79 1.46,3.25 3.25,3.25c1.79,0 3.25,-1.46 3.25,-3.25c0,-0.41 0.34,-0.75 0.75,-0.75c0.41,0 0.75,0.34 0.75,0.75c0,2.62 -2.13,4.75 -4.75,4.75c-2.62,0 -4.75,-2.13 -4.75,-4.75c0,-2.62 2.13,-4.75 4.75,-4.75c0.41,0 0.75,0.34 0.75,0.75c0,0.41 -0.34,0.75 -0.75,0.75zm8.25,3.25c0,1.79 -1.46,3.25 -3.25,3.25c-0.41,0 -0.75,0.34 -0.75,0.75c0,0.41 0.34,0.75 0.75,0.75c2.62,0 4.75,-2.13 4.75,-4.75c0,-2.62 -2.13,-4.75 -4.75,-4.75c-2.62,0 -4.75,2.13 -4.75,4.75c0,0.41 0.34,0.75 0.75,0.75c0.41,0 0.75,-0.34 0.75,-0.75c0,-1.79 1.46,-3.25 3.25,-3.25c1.79,0 3.25,1.46 3.25,3.25z" fill="#60e995" fill-rule="evenodd"/>
   </g>
  </symbol>
 </defs>
 <g class="layer">
  <title>Layer 1</title>
  <g data-name="Capa 1" id="Capa_1-2">
   <g id="svg_3">
    <g id="svg_6">
     <g id="svg_7">
      <g id="svg_8" transform="matrix(0.432974 0 0 0.432974 276.14 212.294)">
       <g id="svg_9">
        <rect class="cls-3" height="6.12" id="svg_10" width="6.12" x="-99.19" y="-31.87"/>
        <path class="cls-3" d="m-103.5,15.11l0,0c-1.69,0 -3.06,-1.37 -3.06,-3.06l0,0c0,-1.69 1.37,-3.06 3.06,-3.06l0,0c1.69,0 3.06,1.37 3.06,3.06l0,0c0,1.69 -1.37,3.06 -3.06,3.06z" id="svg_11"/>
        <polygon class="cls-3" id="svg_12" points="-123.92751121520996,30.090310096740723 -127.32750511169434,37.060303688049316 -130.72751426696777,30.090310096740723 -123.92751121520996,30.090310096740723 "/>
        <rect class="cls-3" height="6.12" id="svg_13" width="6.12" x="-87.13" y="34.17"/>
        <g id="svg_14">
         <line class="cls-4" id="svg_15" x1="-122.6" x2="-116.48" y1="57.12" y2="57.12"/>
         <line class="cls-4" id="svg_16" x1="-119.54" x2="-119.54" y1="54.06" y2="60.19"/>
        </g>
        <rect class="cls-3" height="6.12" id="svg_17" width="6.12" x="-99.07" y="59.47"/>
        <path class="cls-3" d="m-86.62,91.93l0,0c-1.69,0 -3.06,-1.37 -3.06,-3.06l0,0c0,-1.69 1.37,-3.06 3.06,-3.06l0,0c1.69,0 3.06,1.37 3.06,3.06l0,0c0,1.69 -1.37,3.06 -3.06,3.06z" id="svg_18"/>
        <path class="cls-3" d="m-142.14,4.33l0,0c-1.69,0 -3.06,-1.37 -3.06,-3.06l0,0c0,-1.69 1.37,-3.06 3.06,-3.06l0,0c1.69,0 3.06,1.37 3.06,3.06l0,0c0,1.69 -1.37,3.06 -3.06,3.06z" id="svg_19"/>
        <circle class="cls-18" cx="-86.22" cy="17.63" id="svg_20" r="0.84"/>
        <circle class="cls-18" cx="-77.62" cy="-35.86" id="svg_21" r="0.84"/>
        <circle class="cls-18" cx="-108.87" cy="76.36" id="svg_22" r="0.84"/>
        <path class="cls-18" d="m-124.39,95.03c0.46,0 0.84,0.38 0.84,0.84s-0.38,0.84 -0.84,0.84s-0.84,-0.38 -0.84,-0.84s0.38,-0.84 0.84,-0.84z" id="svg_23"/>
        <circle class="cls-18" cx="-92.72" cy="-5.86" id="svg_24" r="0.84"/>
        <circle class="cls-18" cx="-129.01" cy="-25.58" id="svg_25" r="0.84"/>
        <circle class="cls-18" cx="-103.84" cy="36.09" id="svg_26" r="0.84"/>
        <circle class="cls-18" cx="-150.68" cy="30.01" id="svg_27" r="0.84"/>
        <circle class="cls-18" cx="-78.88" cy="54.76" id="svg_28" r="0.84"/>
        <circle class="cls-18" cx="-82.02" cy="116.22" id="svg_29" r="0.84"/>
       </g>
       <g id="svg_30">
        <path class="cls-3" d="m44.03,46.19l0,0c-1.69,0 -3.06,-1.37 -3.06,-3.06l0,0c0,-1.69 1.37,-3.06 3.06,-3.06l0,0c1.69,0 3.06,1.37 3.06,3.06l0,0c0,1.69 -1.37,3.06 -3.06,3.06z" id="svg_31"/>
        <polygon class="cls-3" id="svg_32" points="87.71245765686035,50.620285987854004 84.31250190734863,57.59028720855713 80.9124698638916,50.620285987854004 87.71245765686035,50.620285987854004 "/>
        <rect class="cls-3" height="6.12" id="svg_33" width="6.12" x="60.4" y="65.25"/>
        <g id="svg_34">
         <line class="cls-4" id="svg_35" x1="82.57" x2="76.44" y1="23.24" y2="23.24"/>
         <line class="cls-4" id="svg_36" x1="79.5" x2="79.5" y1="26.3" y2="20.18"/>
        </g>
        <rect class="cls-3" height="6.12" id="svg_37" width="6.12" x="52.92" y="14.78"/>
        <path class="cls-3" d="m46.58,-11.57l0,0c1.69,0 3.06,1.37 3.06,3.06l0,0c0,1.69 -1.37,3.06 -3.06,3.06l0,0c-1.69,0 -3.06,-1.37 -3.06,-3.06l0,0c0,-1.69 1.37,-3.06 3.06,-3.06z" id="svg_38"/>
        <circle class="cls-18" cx="46.18" cy="62.73" id="svg_39" r="0.84"/>
        <circle class="cls-18" cx="37.58" cy="116.22" id="svg_40" r="0.84"/>
        <circle class="cls-18" cx="68.83" cy="4" id="svg_41" r="0.84"/>
        <circle class="cls-18" cx="84.36" cy="-15.51" id="svg_42" r="0.84"/>
        <circle class="cls-18" cx="52.68" cy="86.22" id="svg_43" r="0.84"/>
        <circle class="cls-18" cx="83.8" cy="98.25" id="svg_44" r="0.84"/>
        <circle class="cls-18" cx="63.8" cy="44.27" id="svg_45" r="0.84"/>
        <circle class="cls-18" cx="38.84" cy="25.6" id="svg_46" r="0.84"/>
        <circle class="cls-18" cx="37.96" cy="-25.58" id="svg_47" r="0.84"/>
        <g id="svg_48">
         <line class="cls-4" id="svg_49" x1="37.77" x2="31.65" y1="87.85" y2="87.85"/>
         <line class="cls-4" id="svg_50" x1="34.71" x2="34.71" y1="90.91" y2="84.79"/>
        </g>
       </g>
      </g>
      <g id="svg_51">
       <g id="svg_53">
        <g id="svg_55">
         <circle class="cls-11" cx="184.57" cy="75.83" id="svg_56" r="13.48"/>
         <g id="svg_57">
          <polygon class="cls-18" id="svg_58" points="191.23435854911804,76.16197156906128 188.56431460380554,78.82195234298706 185.9043414592743,78.82195234298706 183.57432436943054,81.15195417404175 183.57432436943054,78.82195234298706 180.57432436943054,78.82195234298706 180.57432436943054,68.84196043014526 191.23435854911804,68.84196043014526 191.23435854911804,76.16197156906128 "/>
          <g data-name="Layer 1-2" id="Layer_1-2">
           <path class="cls-9" d="m179.91,67.5l-3.33,3.33l0,11.98l3.99,0l0,3.33l3.33,-3.33l2.66,0l5.99,-5.99l0,-9.32l-12.65,0l0.01,0zm11.32,8.66l-2.66,2.66l-2.66,0l-2.33,2.33l0,-2.33l-3,0l0,-9.99l10.65,0l0,7.32l0,0l0,0.01z" id="svg_59"/>
           <rect class="cls-9" height="3.99" id="svg_60" width="1.33" x="187.9" y="71.17"/>
           <rect class="cls-9" height="3.99" id="svg_61" width="1.33" x="184.24" y="71.17"/>
          </g>
         </g>
        </g>
       </g>
       <g id="svg_62"/>
       <g id="svg_72">
        <circle class="cls-9" cx="36.14" cy="122.14" id="svg_73" r="13.7"/>
        <g id="svg_74">
         <path class="cls-18" d="m32.48,127.64s0.03,0.03 0.05,0.04c0.15,0.11 0.26,0.26 0.41,0.38c0.45,0.36 0.96,0.56 1.54,0.59c1.38,0.09 2.58,-0.95 2.73,-2.31l0,-12.5c0,-0.19 0.09,-0.28 0.28,-0.28l1.87,0c0.06,0 0.12,0 0.17,0.03l0,0s0.04,0.07 0.05,0.11c0.24,1.1 0.82,1.99 1.73,2.65c0.06,0.04 0.1,0.09 0.16,0.14c0.04,0.03 0.08,0.07 0.12,0.1c0.15,0.08 0.25,0.22 0.38,0.32c0.5,0.42 1.07,0.71 1.71,0.87c0.06,0 0.12,0 0.16,0.07l0,0s0.03,0.09 0.03,0.14l0,2.17c0,0.17 -0.02,0.17 -0.19,0.17c-0.53,0 -1.05,-0.07 -1.56,-0.19c-0.88,-0.2 -1.7,-0.56 -2.46,-1.06c-0.04,-0.03 -0.08,-0.08 -0.12,-0.06c-0.05,0.02 -0.03,0.09 -0.03,0.14l0,6.1c0,1.42 -0.46,2.7 -1.39,3.78c-0.99,1.15 -2.25,1.82 -3.75,2c-1.16,0.14 -2.27,-0.07 -3.31,-0.59c-0.17,-0.08 -0.33,-0.18 -0.48,-0.3c-0.05,-0.04 -0.1,-0.08 -0.14,-0.13c-0.36,-0.3 -0.61,-0.68 -0.85,-1.08c-0.36,-0.61 -0.6,-1.27 -0.71,-1.97c-0.07,-0.4 -0.1,-0.8 -0.08,-1.21c0.07,-1.3 0.51,-2.47 1.35,-3.47c0.7,-0.84 1.58,-1.43 2.62,-1.79c0.43,-0.15 0.88,-0.24 1.34,-0.27c0.08,0 0.17,-0.03 0.25,-0.02c0.04,0 0.08,0 0.12,0.03l0,0s0.02,0.09 0.02,0.13l0,2.28c0,0.07 -0.04,0.1 -0.11,0.08c-0.2,-0.06 -0.41,-0.08 -0.61,-0.09c-0.32,-0.02 -0.64,0.03 -0.94,0.14c-1.01,0.37 -1.62,1.09 -1.75,2.16c-0.13,1.05 0.29,1.89 1.16,2.49c0.07,0.05 0.15,0.1 0.22,0.15l-0.02,0.06l0.03,0z" id="svg_75"/>
         <path class="cls-15" d="m30.59,130.2s0.06,0.02 0.09,0.04c0.66,0.4 1.36,0.66 2.12,0.78c0.38,0.06 0.77,0.09 1.15,0.07c1.29,-0.07 2.44,-0.5 3.44,-1.32c0.96,-0.79 1.6,-1.8 1.92,-3c0.1,-0.38 0.16,-0.77 0.18,-1.16c0,-0.23 0,-0.45 0,-0.68l0,-5.95c0.05,0 0.07,0.02 0.1,0.04c0.69,0.47 1.44,0.82 2.24,1.04c0.44,0.12 0.89,0.2 1.35,0.24c0.19,0.02 0.39,0 0.58,0.03c0.08,0 0.09,0 0.09,-0.09l0,-2.37c0.17,0.02 0.34,0.06 0.52,0.07c0.11,0 0.21,0.02 0.32,0c0.05,0 0.08,0.02 0.07,0.07l0,2.98q0,0.08 -0.09,0.08c-0.3,0 -0.59,-0.02 -0.89,-0.06c-0.6,-0.08 -1.18,-0.23 -1.75,-0.45c-0.54,-0.21 -1.05,-0.48 -1.53,-0.81c-0.03,-0.02 -0.06,-0.04 -0.11,-0.07l0,6.35c0,1.1 -0.29,2.13 -0.88,3.07c-0.71,1.13 -1.7,1.93 -2.95,2.38c-0.76,0.28 -1.55,0.38 -2.36,0.32c-1.37,-0.1 -2.55,-0.62 -3.55,-1.55c-0.03,-0.02 -0.05,-0.05 -0.07,-0.08l0,0.02l0.01,0.01z" id="svg_76"/>
         <path class="cls-13" d="m39.53,113.59l-2.12,0c-0.1,0 -0.15,0.05 -0.15,0.15l0,12.23c0,0.28 -0.02,0.56 -0.11,0.83c-0.31,0.95 -0.95,1.58 -1.93,1.81c-1.05,0.24 -1.94,-0.08 -2.65,-0.89c0,0 -0.02,-0.03 -0.03,-0.05c0.2,0.08 0.41,0.16 0.62,0.2c0.68,0.14 1.33,0.03 1.92,-0.34c0.69,-0.42 1.09,-1.04 1.23,-1.83c0.03,-0.15 0.03,-0.3 0.03,-0.45l0,-12.26c0,-0.19 -0.03,-0.17 0.16,-0.17l2.9,0q0.1,0 0.1,0.1c0,0.22 0,0.44 0.04,0.65l0,0.02l-0.01,0z" id="svg_77"/>
         <path class="cls-13" d="m34.49,120.3c-0.58,0.02 -1.14,0.11 -1.69,0.29c-0.79,0.26 -1.49,0.67 -2.11,1.24c-0.8,0.74 -1.35,1.64 -1.65,2.69c-0.11,0.37 -0.17,0.76 -0.2,1.15c-0.02,0.23 -0.02,0.47 0,0.7c0.03,0.65 0.17,1.27 0.41,1.87c0.27,0.67 0.66,1.27 1.16,1.8c0,0 0.02,0.02 0.02,0.04c-0.11,-0.05 -0.21,-0.13 -0.3,-0.21c-0.93,-0.74 -1.59,-1.67 -1.96,-2.81c-0.13,-0.4 -0.2,-0.8 -0.24,-1.22c-0.03,-0.3 -0.03,-0.6 0,-0.9c0.05,-0.69 0.21,-1.35 0.49,-1.98c0.3,-0.66 0.7,-1.24 1.22,-1.75c0.6,-0.59 1.3,-1.03 2.09,-1.32c0.5,-0.18 1.01,-0.29 1.54,-0.33c0.38,-0.03 0.76,-0.02 1.14,0.03c0.05,0 0.08,0.02 0.08,0.08l0,0.63l0,0z" id="svg_78"/>
         <path class="cls-15" d="m32.48,127.64c-0.23,-0.1 -0.43,-0.26 -0.61,-0.43c-0.46,-0.44 -0.73,-0.98 -0.8,-1.61c-0.15,-1.32 0.69,-2.46 1.84,-2.82c0.49,-0.15 0.99,-0.16 1.49,-0.02c0.03,0 0.06,0.02 0.09,0c0.02,-0.04 0,-0.08 0,-0.12l0,-2.34c0.29,-0.02 0.57,0 0.85,0.04c0.04,0 0.06,0.03 0.06,0.06l0,3.02s0,0.07 0,0.11c-0.13,-0.02 -0.26,-0.06 -0.39,-0.08c-0.76,-0.11 -1.44,0.07 -2.04,0.54c-0.53,0.42 -0.85,0.96 -0.96,1.63c-0.12,0.7 0.03,1.35 0.43,1.94c0.02,0.02 0.03,0.05 0.05,0.07l-0.01,0.01z" id="svg_79"/>
         <path class="cls-15" d="m41.48,116.5c-0.29,-0.17 -0.54,-0.38 -0.77,-0.62c-0.62,-0.64 -1.01,-1.39 -1.17,-2.26l0,-0.02c0.27,-0.02 0.53,0 0.8,0c0.05,0 0.07,0.02 0.06,0.07l0,0.06c0,0.75 0.21,1.43 0.57,2.07c0.13,0.23 0.29,0.44 0.46,0.64c0.02,0.02 0.05,0.04 0.05,0.07l0,0l0,-0.01z" id="svg_80"/>
         <path class="cls-13" d="m43.85,117.87c-0.76,-0.16 -1.43,-0.5 -2.01,-1.02c-0.09,-0.08 -0.17,-0.15 -0.24,-0.24c0.03,0 0.05,0 0.07,0.03c0.46,0.26 0.95,0.44 1.48,0.52c0.2,0.03 0.41,0.06 0.62,0.05q0.09,0 0.09,0.08l0,0.58l0,0l-0.01,0z" id="svg_81"/>
        </g>
       </g>
      </g>
      <use id="svg_146" transform="matrix(1 0 0 1 0 0) matrix(0.494891 0 0 0.494891 -0.583637 -0.583637)" x="332.46" xlink:href="#svg_144" y="241.96"/>
      <use id="svg_154" transform="matrix(0.489338 0 0 0.489338 309.597 233.805)" x="-608.63" xlink:href="#svg_153" y="-380.03"/>
     </g>
     <g id="svg_82">
      <g id="svg_83">
       <g id="svg_84">
        <path class="cls-6" d="m164.63,278.19l-112.23,0c-7.28,0 -11.93,-4.24 -10.44,-9.27l28.78,-96.92c0.46,-1.56 3.98,-2.8 7.86,-2.8l59.81,0c3.88,0 7.4,1.24 7.86,2.8l28.78,96.92c1.49,5.03 -3.15,9.27 -10.44,9.27l0.02,0z" id="svg_85"/>
        <g id="svg_86">
         <g id="svg_87">
          <rect class="cls-14" height="187.88" id="svg_88" rx="5.29" ry="5.29" width="93.23" x="61.91" y="11.4"/>
          <rect class="cls-14" height="177.84" id="svg_89" rx="5" ry="5" width="88.24" x="64.4" y="15.71"/>
          <rect class="cls-14" height="174.49" id="svg_90" rx="4.46" ry="4.46" width="84.89" x="66.07" y="17.39"/>
          <path class="cls-14" d="m122.43,22.4l-27.82,0c-6.07,0 -11,-4.92 -11,-11l49.81,0c0,6.07 -4.92,11 -11,11l0.01,0z" id="svg_91"/>
          <circle class="cls-14" cx="108.52" cy="17.86" id="svg_92" r="1.43"/>
         </g>
         <rect class="cls-18" height="15.01" id="svg_93" rx="6.22" ry="6.22" width="81.24" x="67.85" y="143.98"/>
         <rect class="cls-18" height="15.28" id="svg_94" rx="6.22" ry="6.22" width="81.24" x="67.85" y="164.93"/>
         <g id="svg_95">
          <circle class="cls-9" cx="79.16" cy="151.2" id="svg_96" r="4.72"/>
          <g id="svg_97">
           <path class="cls-18" d="m81.57,153.36l-1.78,-2.58l-0.2,-0.29l-1.27,-1.85l-0.11,-0.15l-1.56,0l0.38,0.55l1.69,2.46l0.2,0.29l1.36,1.97l0.11,0.15l1.56,0l-0.38,-0.55l0,0zm-1,0.2l-1.41,-2.05l-0.2,-0.29l-1.64,-2.38l0.7,0l1.32,1.92l0.2,0.29l1.72,2.51l-0.7,0l0,0l0.01,0z" id="svg_98"/>
           <polygon class="cls-18" id="svg_99" points="78.96298098564148,151.209632396698 79.16300082206726,151.5096354484558 78.92301058769226,151.77962446212769 77.09296298027039,153.90962934494019 76.64297366142273,153.90962934494019 78.72299075126648,151.48963117599487 78.96298098564148,151.209632396698 "/>
           <polygon class="cls-18" id="svg_100" points="81.76296877861023,148.47963666915894 79.79300570487976,150.76962995529175 79.5529773235321,151.04962873458862 79.35299563407898,150.7596354484558 79.59298586845398,150.47963666915894 80.92301058769226,148.92963361740112 81.31301760673523,148.47963666915894 81.76296877861023,148.47963666915894 "/>
          </g>
         </g>
         <g id="svg_101">
          <circle class="cls-9" cx="79.16" cy="172.57" id="svg_102" r="5.21"/>
          <g id="svg_103">
           <path class="cls-18" d="m77.77,174.66s0,0.01 0.02,0.02c0.06,0.04 0.1,0.1 0.15,0.14c0.17,0.14 0.36,0.21 0.58,0.23c0.52,0.03 0.98,-0.36 1.04,-0.88l0,-4.75c0,-0.07 0.03,-0.11 0.1,-0.11l0.78,0s0,0.03 0.02,0.04c0.09,0.42 0.31,0.75 0.66,1.01c0.02,0.02 0.04,0.04 0.06,0.05c0.02,0.01 0.03,0.03 0.05,0.04c0.06,0.03 0.1,0.08 0.14,0.12c0.19,0.16 0.41,0.27 0.65,0.33c0.02,0 0.05,0 0.06,0.03l0,0s0,0.03 0,0.05l0,0.82c0,0.06 0,0.07 -0.07,0.07c-0.2,0 -0.4,-0.03 -0.59,-0.07c-0.34,-0.08 -0.65,-0.21 -0.93,-0.4c0,0 -0.03,-0.03 -0.05,-0.02c-0.02,0 0,0.04 0,0.05l0,2.32c0,0.54 -0.18,1.02 -0.53,1.44c-0.38,0.44 -0.85,0.69 -1.43,0.76c-0.44,0.05 -0.86,-0.03 -1.26,-0.22c-0.06,-0.03 -0.13,-0.07 -0.18,-0.11c-0.02,-0.02 -0.04,-0.03 -0.05,-0.05c-0.14,-0.11 -0.23,-0.26 -0.32,-0.41c-0.14,-0.23 -0.23,-0.48 -0.27,-0.75c-0.02,-0.15 -0.04,-0.3 -0.03,-0.46c0.03,-0.5 0.19,-0.94 0.51,-1.32c0.27,-0.32 0.6,-0.54 1,-0.68c0.16,-0.06 0.33,-0.09 0.51,-0.1l0.1,0s0.03,0 0.04,0.01l0,0l0,0.92s-0.02,0.04 -0.04,0.03c-0.08,-0.02 -0.15,-0.03 -0.23,-0.04c-0.12,0 -0.24,0.01 -0.36,0.05c-0.38,0.14 -0.62,0.42 -0.66,0.82c-0.05,0.4 0.11,0.72 0.44,0.95c0.03,0.02 0.06,0.04 0.08,0.06l0,0l0.01,0.01z" id="svg_104"/>
           <path class="cls-15" d="m77.05,175.63s0.02,0 0.03,0.01c0.25,0.15 0.52,0.25 0.81,0.3c0.14,0.02 0.29,0.03 0.44,0.03c0.49,-0.03 0.93,-0.19 1.31,-0.5c0.37,-0.3 0.61,-0.68 0.73,-1.14c0.04,-0.14 0.06,-0.29 0.07,-0.44l0,-2.52s0.03,0 0.04,0.02c0.26,0.18 0.55,0.31 0.85,0.4c0.17,0.05 0.34,0.08 0.51,0.09c0.07,0 0.15,0 0.22,0.01t0.03,-0.03l0,-0.91c0.07,0 0.13,0.02 0.2,0.03l0.12,0s0.03,0 0.03,0.03l0,1.13s0,0.03 -0.03,0.03c-0.11,0 -0.23,0 -0.34,-0.02c-0.23,-0.03 -0.45,-0.09 -0.67,-0.17c-0.21,-0.08 -0.4,-0.18 -0.58,-0.31c0,0 -0.02,-0.01 -0.04,-0.03l0,2.41c0,0.42 -0.11,0.81 -0.33,1.17c-0.27,0.43 -0.65,0.73 -1.12,0.91c-0.29,0.11 -0.59,0.15 -0.9,0.12c-0.52,-0.04 -0.97,-0.24 -1.35,-0.59c0,0 -0.02,-0.02 -0.03,-0.03l0,0z" id="svg_105"/>
           <path class="cls-13" d="m80.45,169.32l-0.81,0s-0.06,0.02 -0.06,0.06l0,4.65c0,0.11 0,0.21 -0.04,0.32c-0.12,0.36 -0.36,0.6 -0.73,0.69c-0.4,0.09 -0.74,-0.03 -1.01,-0.34c0,0 0,-0.01 0,-0.02c0.08,0.03 0.15,0.06 0.24,0.08c0.26,0.05 0.5,0.01 0.73,-0.13c0.26,-0.16 0.41,-0.4 0.47,-0.7c0,-0.06 0,-0.11 0,-0.17l0,-4.66c0,-0.07 0,-0.06 0.06,-0.06l1.1,0s0.04,0 0.04,0.04c0,0.08 0,0.17 0,0.25l0,0l0.01,-0.01z" id="svg_106"/>
           <path class="cls-13" d="m78.53,171.87c-0.22,0 -0.43,0.04 -0.64,0.11c-0.3,0.1 -0.57,0.26 -0.8,0.47c-0.31,0.28 -0.51,0.62 -0.63,1.02c-0.04,0.14 -0.06,0.29 -0.07,0.44l0,0.27c0,0.25 0.06,0.48 0.16,0.71c0.1,0.26 0.25,0.48 0.44,0.68l0,0s-0.08,-0.04 -0.11,-0.07c-0.36,-0.28 -0.61,-0.64 -0.74,-1.07c-0.05,-0.15 -0.08,-0.3 -0.09,-0.46c0,-0.11 0,-0.23 0,-0.34c0.02,-0.26 0.08,-0.51 0.19,-0.75c0.11,-0.25 0.27,-0.47 0.46,-0.67c0.23,-0.22 0.49,-0.39 0.79,-0.5c0.19,-0.07 0.38,-0.11 0.58,-0.12c0.15,-0.01 0.29,0 0.43,0c0.02,0 0.03,0 0.03,0.03l0,0.24l0,0l0,0.01z" id="svg_107"/>
           <path class="cls-15" d="m77.77,174.66c-0.09,-0.04 -0.16,-0.1 -0.23,-0.16c-0.17,-0.17 -0.28,-0.37 -0.3,-0.61c-0.06,-0.5 0.26,-0.94 0.7,-1.07c0.19,-0.06 0.38,-0.06 0.57,0l0.03,0l0,-0.95c0.11,0 0.22,0 0.32,0.01t0.02,0.02l0,1.19c-0.05,0 -0.1,-0.02 -0.15,-0.03c-0.29,-0.04 -0.55,0.03 -0.78,0.21c-0.2,0.16 -0.32,0.37 -0.37,0.62c-0.04,0.27 0,0.51 0.16,0.74c0,0 0,0.02 0.02,0.03l0,0l0.01,0z" id="svg_108"/>
           <path class="cls-15" d="m81.19,170.43c-0.11,-0.06 -0.2,-0.15 -0.29,-0.24c-0.23,-0.24 -0.38,-0.53 -0.45,-0.86l0.3,0s0.03,0 0.02,0.02l0,0.02c0,0.28 0.08,0.54 0.22,0.79c0.05,0.09 0.11,0.17 0.17,0.24c0,0 0.02,0.02 0.02,0.03l0,0l0.01,0z" id="svg_109"/>
           <path class="cls-13" d="m82.09,170.95c-0.29,-0.06 -0.54,-0.19 -0.76,-0.39c-0.03,-0.03 -0.07,-0.06 -0.09,-0.09c0,0 0.02,0 0.03,0.01c0.17,0.1 0.36,0.17 0.56,0.2c0.08,0.01 0.16,0.02 0.23,0.02t0.03,0.03l0,0.22z" id="svg_110"/>
          </g>
         </g>
         <rect class="cls-18" height="15.01" id="svg_111" rx="6.22" ry="6.22" width="81.24" x="67.9" y="123.84"/>
         <rect class="cls-18" height="15.01" id="svg_112" rx="6.22" ry="6.22" width="81.24" x="67.9" y="102.85"/>
         <rect class="cls-18" height="15.01" id="svg_113" rx="6.22" ry="6.22" width="81.24" x="67.9" y="82.03"/>
         <g id="svg_120">
          <path class="cls-12" d="m83.42,110.32c0,-2.73 -2.21,-4.94 -4.94,-4.94s-4.94,2.21 -4.94,4.94c0,2.47 1.81,4.51 4.17,4.88l0,-3.45l-1.26,0l0,-1.43l1.26,0l0,-1.09c0,-1.24 0.74,-1.92 1.87,-1.92c0.54,0 1.11,0.1 1.11,0.1l0,1.22l-0.62,0c-0.61,0 -0.81,0.38 -0.81,0.77l0,0.93l1.37,0l-0.22,1.43l-1.15,0l0,3.45c2.36,-0.37 4.17,-2.42 4.17,-4.88l0,0l-0.01,-0.01z" id="svg_121"/>
          <path class="cls-18" d="m80.4,111.75l0.22,-1.43l-1.37,0l0,-0.93c0,-0.39 0.19,-0.77 0.81,-0.77l0.62,0l0,-1.22s-0.57,-0.1 -1.11,-0.1c-1.13,0 -1.87,0.68 -1.87,1.92l0,1.09l-1.26,0l0,1.43l1.26,0l0,3.45c0.25,0.04 0.51,0.06 0.77,0.06s0.52,-0.02 0.77,-0.06l0,-3.45l1.16,0l0,0.01z" id="svg_122"/>
         </g>
         <g id="svg_123">
          <circle class="cls-16" cx="78.47" cy="89.53" id="svg_124" r="5.34"/>
          <path class="cls-18" d="m81.88,87.82c-0.08,-0.31 -0.32,-0.55 -0.63,-0.63c-0.55,-0.15 -2.78,-0.15 -2.78,-0.15c0,0 -2.23,0 -2.78,0.15c-0.31,0.08 -0.55,0.32 -0.63,0.63c-0.15,0.55 -0.15,1.71 -0.15,1.71c0,0 0,1.16 0.15,1.71c0.08,0.31 0.32,0.55 0.63,0.63c0.55,0.15 2.78,0.15 2.78,0.15c0,0 2.23,0 2.78,-0.15c0.31,-0.08 0.55,-0.32 0.63,-0.63c0.15,-0.55 0.15,-1.71 0.15,-1.71c0,0 0,-1.16 -0.15,-1.71zm-4.12,2.78l0,-2.13l1.85,1.07l-1.85,1.07l0,0l0,-0.01z" id="svg_125"/>
         </g>
        </g>
       </g>
       <g class="cls-20" id="svg_126">
        <path class="cls-18" d="m153.01,46.81l-88.24,107.21l0,31.14s0,0.08 0,0.12l88.23,-107.19l0,-31.28l0.01,0z" id="svg_127"/>
        <path class="cls-18" d="m64.77,141.98l88.24,-107.21l0,-10.67c0,-1.96 -0.7,-3.74 -1.82,-5.16l-86.42,104.99l0,18.05z" id="svg_128"/>
       </g>
      </g>
      <g id="svg_129">
       <circle class="cls-5" cx="109.37" cy="51.08" id="svg_130" r="18.31"/>
       <g class="cls-19" id="svg_131">
        <g id="svg_132">
         <path class="cls-18" d="m116.93,46.9c0,4.17 -3.38,7.55 -7.55,7.55s-7.55,-3.38 -7.55,-7.55s3.38,-7.55 7.55,-7.55s7.55,3.38 7.55,7.55z" id="svg_133"/>
         <ellipse class="cls-18" cx="109.37" cy="65.48" id="svg_134" rx="11.29" ry="12.62"/>
        </g>
       </g>
      </g>
     </g>
    </g>
   </g>
  </g>
  <use id="svg_159" x="280.56" xlink:href="#svg_158" y="-149.11"/>
  <use id="svg_161" x="-64.84" xlink:href="#svg_153" y="-155.71"/>
  <rect height="0.37" id="svg_162" width="0" x="5.11" y="1.12"/>
  <use id="svg_163" transform="matrix(0.157558 0 0 0.157558 149.632 154.35)" x="-480.47" xlink:href="#svg_153" y="-178.06"/>
  <use id="svg_164" transform="matrix(0.551843 0 0 0.551843 147.757 220.75)" x="-120.24" xlink:href="#svg_158" y="-364.59"/>
 </g>
</svg>